<?xml version="1.0" encoding="utf-8"?>
<!-- Generator: Adobe Illustrator 16.0.0, SVG Export Plug-In . SVG Version: 6.00 Build 0)  -->
<!DOCTYPE svg PUBLIC "-//W3C//DTD SVG 1.1//EN" "http://www.w3.org/Graphics/SVG/1.1/DTD/svg11.dtd">
<svg version="1.1" id="Layer_1" xmlns="http://www.w3.org/2000/svg" xmlns:xlink="http://www.w3.org/1999/xlink" x="0px" y="0px"
	 width="512px" height="512px" viewBox="0 0 512 512" enable-background="new 0 0 512 512" xml:space="preserve">
<g>
	<polygon fill="#666666" points="352.729,467.701 443.403,443.406 462.682,371.454 317.088,377.374 	"/>
	<polygon fill="#666666" points="413.521,88.93 324.594,0 183.145,37.903 226.641,148.142 	"/>
	<polygon fill="#666666" points="177.12,39.516 68.595,68.595 30.639,210.242 220.72,150.018 	"/>
	<polygon fill="#1E1E96" points="282.096,305.563 223,155.794 28.739,217.342 0,324.596 57.145,381.74 226.126,374.871 	"/>
	<polygon fill="#666666" points="442,117.406 289.184,306.648 314.682,371.271 464.363,365.186 512,187.406 	"/>
	<polygon fill="#666666" stroke="#FFFFFF" stroke-miterlimit="10" points="308.122,371.537 284.709,312.191 234.364,374.537 	"/>
	<polygon fill="#1E1E96" points="286.569,300.022 437.592,113.001 418.457,93.863 228.92,153.919 	"/>
	<polygon fill="#666666" points="229.186,380.949 151.972,476.566 187.403,512 346.705,469.316 310.531,377.641 	"/>
	<polygon fill="#1E1E96" points="63.105,387.699 147.563,472.16 220.95,381.281 	"/>
	<polygon fill="#FFFFFF" points="289.184,306.648 442,117.406 437.592,113.001 286.569,300.022 	"/>
	<polygon fill="#FFFFFF" points="220.95,381.281 147.563,472.16 151.972,476.566 229.186,380.949 	"/>
	<polygon fill="#FFFFFF" points="284.709,312.191 282.096,305.563 226.126,374.871 234.364,374.537 	"/>
	<polygon fill="#FFFFFF" points="234.364,374.537 229.186,380.949 310.531,377.641 308.122,371.537 	"/>
	<polygon fill="#FFFFFF" points="226.126,374.871 57.145,381.74 63.105,387.699 220.95,381.281 	"/>
	<polygon fill="#FFFFFF" points="317.088,377.374 462.682,371.454 464.363,365.186 314.682,371.271 	"/>
	<polygon fill="#FFFFFF" points="226.126,374.871 220.95,381.281 229.186,380.949 234.364,374.537 	"/>
	<polygon fill="#FFFFFF" points="220.72,150.018 30.639,210.242 28.739,217.342 223,155.794 	"/>
	<polygon fill="#FFFFFF" points="228.92,153.919 418.457,93.863 413.521,88.93 226.641,148.142 	"/>
	<polygon fill="#FFFFFF" points="226.641,148.142 183.145,37.903 177.12,39.516 220.72,150.018 	"/>
	<polygon fill="#FFFFFF" points="308.122,371.537 314.682,371.271 289.184,306.648 284.709,312.191 	"/>
	<polygon fill="#FFFFFF" points="310.531,377.641 346.705,469.316 352.729,467.701 317.088,377.374 	"/>
	<polygon fill="#FFFFFF" points="228.92,153.919 223,155.794 282.096,305.563 286.569,300.022 	"/>
	<polygon fill="#FFFFFF" points="282.096,305.563 284.709,312.191 289.184,306.648 286.569,300.022 	"/>
	<polygon fill="#FFFFFF" points="310.531,377.641 317.088,377.374 314.682,371.271 308.122,371.537 	"/>
	<polygon fill="#FFFFFF" points="226.641,148.142 220.72,150.018 223,155.794 228.92,153.919 	"/>
</g>
</svg>
